<svg xmlns="http://www.w3.org/2000/svg" width="62" height="62" viewBox="-1 -1 64 64">
 <g id="_group_">
  <g id="_logo_">
   <path id="path_top" fill="#0089FC" d="m53.052659,14.207821c0,0 -21.084846,-11.860226 -22.109804,-12.445916c-1.024958,0.58569 -22.158611,12.445916 -22.158611,12.445916c-0.097615,0 -6.784244,2.879643 -6.784244,7.46755c0,0 0,8.785352 0,12.738761c1.122573,-2.147531 3.367718,-3.758179 5.368827,-4.831944c2.489183,-1.317803 23.574029,-13.129221 23.574029,-13.129221c1.805878,1.024958 21.572921,12.055456 23.281184,13.031606c1.805878,-0.97615 5.661672,-3.465333 5.661672,-6.930667l0,-0.829728c0,-4.636714 -6.686629,-7.516357 -6.833052,-7.516357z"/>
   <path id="path_bottom" fill="#0089FC" d="m54.300876,31.812069c-2.478945,1.312383 -23.477066,13.075219 -23.477066,13.075219c-1.79845,-1.020742 -21.484189,-12.00587 -23.185426,-12.978006c-1.79845,0.972135 -5.638384,3.45108 -5.638384,6.90216l0,0.826315c0,4.569036 6.707733,7.436835 6.804947,7.485441c0,0 20.998121,11.811443 22.018863,12.394724c1.020742,-0.583281 22.06747,-12.394724 22.06747,-12.394724c0.048607,-0.048607 6.75634,-2.867799 6.75634,-7.436835c0,0 0,-8.749217 0,-12.686365c-1.117956,2.187304 -3.353867,3.791327 -5.346744,4.812069z"/>
  </g>
 </g>
</svg>