<svg xmlns="http://www.w3.org/2000/svg" width="48" height="48" viewBox="0 0 48 48">
  <g id="_group_">
    <g id="_logo_">
      <path id="path_top" fill="#0089FC" d="m40.983779,11.777819c0,0 -16.026967,-9.015163 -16.806056,-9.460359c-0.779089,0.445196 -16.843152,9.460359 -16.843152,9.460359c-0.074207,0 -5.156828,2.188869 -5.156828,5.676231c0,0 0,6.677895 0,9.682949c0.853281,-1.63237 2.559858,-2.856656 4.080941,-3.672841c1.892072,-1.001695 17.919038,-9.979762 17.919038,-9.979762c1.372669,0.779089 16.397956,9.163562 17.696448,9.905555c1.372669,-0.741994 4.303531,-2.63405 4.303531,-5.268115l0,-0.630691c0,-3.524458 -5.082636,-5.713327 -5.193924,-5.713327z"/>
      <path id="path_bottom" fill="#0089FC" d="m41.717976,25.789363c-1.882556,0.996632 -17.828799,9.929478 -17.828799,9.929478c-1.365762,-0.775152 -16.315373,-9.117403 -17.607318,-9.855662c-1.365762,0.738259 -4.281858,2.620799 -4.281858,5.241582l0,0.627519c0,3.469783 5.093934,5.647636 5.167766,5.684544c0,0 15.946243,8.96977 16.721411,9.412716c0.775167,-0.442946 16.758319,-9.412716 16.758319,-9.412716c0.036924,-0.036908 5.130858,-2.177837 5.130858,-5.647636c0,0 0,-6.644252 0,-9.634181c-0.848999,1.661059 -2.546967,2.879172 -4.060377,3.654355z"/>
    </g>
  </g>
</svg>
