<svg xmlns="http://www.w3.org/2000/svg" width="123" height="123">
 <g>
  <g id="_group_">
   <g id="_logo_">
    <path d="m106.6,27.5c0,0 -43.2,-24.3 -45.3,-25.5c-2.1,1.2 -45.4,25.5 -45.4,25.5c-0.2,0 -13.9,5.9 -13.9,15.3c0,0 0,18 0,26.1c2.3,-4.4 6.9,-7.7 11,-9.9c5.1,-2.7 48.3,-26.9 48.3,-26.9c3.7,2.1 44.2,24.7 47.7,26.7c3.7,-2 11.6,-7.1 11.6,-14.2l0,-1.7c0,-9.5 -13.7,-15.4 -14,-15.4z" fill="#0089FC" id="path_top"/>
    <path d="m109.6,64.2c-5.1,2.7 -48.3,26.9 -48.3,26.9c-3.7,-2.1 -44.2,-24.7 -47.7,-26.7c-3.7,2 -11.6,7.1 -11.6,14.2l0,1.7c0,9.4 13.8,15.3 14,15.4c0,0 43.2,24.3 45.3,25.5c2.1,-1.2 45.4,-25.5 45.4,-25.5c0.1,-0.1 13.9,-5.9 13.9,-15.3c0,0 0,-18 0,-26.1c-2.3,4.5 -6.9,7.8 -11,9.9z" fill="#0089FC" id="path_bottom"/>
   </g>
  </g>
 </g>
</svg>
